<svg xmlns="http://www.w3.org/2000/svg" width="141" height="24" viewBox="0 0 141 24" fill="none">
  <path d="M6.02461 1.38419C10.6177 1.38419 14.3476 6.22384 14.3476 12.1732C14.3476 18.1226 10.6177 22.9623 6.02461 22.9623H1V22.7465H1.61652V2.58639C1.61652 1.72327 1.06165 1.41501 1 1.38419H6.02461ZM6.02461 22.7465C8.33654 22.7465 13.0837 19.109 13.0837 12.1732C13.0837 5.32989 8.33654 1.59997 6.02461 1.59997H2.9112V21.7601C2.9112 22.2533 3.09616 22.5615 3.28111 22.7465H6.02461Z" fill="#F1ECE3"/>
  <path d="M24.1218 22.9622V22.7465H24.7383L21.1317 11.7108C19.7445 12.9439 18.4806 14.6701 17.9874 16.4888V21.76C17.9874 22.6232 18.5423 22.9314 18.6039 22.9622H16.0762V22.7465H16.6927V2.58638C16.6927 1.72326 16.1379 1.415 16.0762 1.38417H18.4806C20.8542 1.38417 25.0157 1.90821 25.4164 4.92914C25.6322 6.00804 25.3548 7.21025 24.7999 8.1042C24.0293 9.33723 22.8271 10.2928 21.7173 11.2176L25.6939 21.76C26.0021 22.5923 26.6187 22.9314 26.6803 22.9622H24.1218ZM17.9874 15.749C19.3129 11.9266 22.4263 10.2312 23.721 7.48768C24.0909 6.71704 24.2142 5.94639 24.1218 5.14492C23.7827 2.43225 20.361 1.59995 18.0799 1.59995H17.9874V15.749Z" fill="#F1ECE3"/>
  <path d="M42.5335 22.619C43.0884 22.619 43.3658 22.0025 43.4891 21.5401V22.8348H34.3646V22.619H34.9812V2.4589C34.9812 1.59578 34.4263 1.28752 34.3646 1.25669H36.8924V1.47247H36.2759V21.6326C36.2759 22.1258 36.4608 22.434 36.6458 22.619H42.5335Z" fill="#F1ECE3"/>
  <path d="M57.5124 1V1.50769H46.6476V7.94031C48.1257 7.18289 50.8617 6.58601 53.0002 6.58601C54.604 6.58601 56.3966 6.87004 57.34 7.24875L54.95 8.7636C53.8807 8.10085 52.3397 7.62746 50.5157 7.62746C49.132 7.62746 47.9684 7.87994 46.6476 8.54268V22.4892H57.5124V23.0915H44.6417V1H57.5124Z" fill="#F1ECE3"/>
  <path d="M72.496 15.5907C72.496 19.0741 70.0916 22.8348 65.1595 22.8348H59.2409V22.619H59.8574V2.45894C59.8574 1.59581 59.3026 1.28755 59.2409 1.25673H61.6453C64.0189 1.25673 68.1804 1.78077 68.5811 4.8017C68.7969 5.8806 68.5195 7.08281 67.9646 7.97676C67.8105 8.19254 67.6564 8.40832 67.5022 8.6241C70.369 9.48722 72.496 12.2615 72.496 15.5907ZM61.1521 1.47251V15.6216C62.4468 11.8916 65.591 10.0729 66.8857 7.36024C67.2556 6.62042 67.3789 5.81895 67.2865 5.01748C66.9165 2.21233 63.4949 1.47251 61.1521 1.47251ZM62.6626 22.619C66.7932 22.619 68.4887 21.5093 69.4134 20.492C70.5232 19.1974 71.2013 17.4711 71.2013 15.5907C71.2013 12.6623 70.3074 9.91878 67.3481 8.77823C66.9474 9.27144 66.4233 9.76466 65.9301 10.1962C65.2211 10.8436 64.4505 11.3984 63.7723 12.0766C62.6009 13.2788 61.5837 14.6968 61.1521 16.3614V21.6326C61.1521 22.1258 61.3371 22.4341 61.522 22.619H62.6626Z" fill="#F1ECE3"/>
  <path d="M86.7122 1V1.50769H75.8474V7.94031C77.3255 7.18289 80.0615 6.58601 82.2 6.58601C83.8038 6.58601 85.5964 6.87004 86.5398 7.24875L84.1498 8.7636C83.0805 8.10085 81.5395 7.62746 79.7155 7.62746C78.3318 7.62746 77.1682 7.87994 75.8474 8.54268V22.4892H86.7122V23.0915H73.8415V1H86.7122Z" fill="#F1ECE3"/>
  <path d="M93.4653 1.44876C98.0584 1.44876 101.788 6.28841 101.788 12.2378C101.788 18.1872 98.0584 23.0268 93.4653 23.0268H88.4407V22.811H89.0572V2.65097C89.0572 1.78784 88.5024 1.47958 88.4407 1.44876H93.4653ZM93.4653 22.811C95.7773 22.811 100.524 19.1736 100.524 12.2378C100.524 5.39446 95.7773 1.66454 93.4653 1.66454H90.3519V21.8246C90.3519 22.3178 90.5369 22.6261 90.7218 22.811H93.4653Z" fill="#F1ECE3"/>
  <path d="M116.196 1V1.50769H105.331V7.94031C106.809 7.18289 109.545 6.58601 111.684 6.58601C113.288 6.58601 115.08 6.87004 116.024 7.24875L113.634 8.7636C112.565 8.10085 111.024 7.62746 109.2 7.62746C107.816 7.62746 106.652 7.87994 105.331 8.54268V22.4892H116.196V23.0915H103.326V1H116.196Z" fill="#F1ECE3"/>
  <path d="M128.244 1.25673C130.68 4.64757 128.83 8.31584 127.72 10.5353C126.179 13.6179 124.638 17.6869 124.514 21.1702L124.915 22.8348H123.59L118.658 2.45894C118.534 1.96572 118.195 1.47251 117.733 1.25673H120.26V1.47251H119.675L124.36 20.4612C124.607 17.1628 126.056 13.4021 127.535 10.4428C128.614 8.25419 129.385 4.55509 126.981 1.25673H128.244Z" fill="#F1ECE3"/>
  <path d="M139.075 21.6326C139.199 22.1258 139.538 22.619 140 22.8348H137.441V22.619H138.058L136.917 18.026C136.178 15.8682 134.359 13.8028 131.924 13.8028C131.153 13.8028 130.444 14.0186 129.858 14.4502C128.964 16.6388 128.625 19.9063 130.752 22.8348H129.488C127.053 19.444 128.903 15.7757 130.012 13.5562C131.554 10.4736 133.095 6.37382 133.218 2.92132L132.787 1.25673H134.143L139.075 21.6326ZM131.893 13.5871C133.958 13.5871 135.684 15.0359 136.609 16.7929L133.372 3.63032C133.095 6.92868 131.461 11.1518 129.982 14.1111C130.536 13.772 131.215 13.5871 131.893 13.5871Z" fill="#F1ECE3"/>
  <path d="M6.02461 1.38419C10.6177 1.38419 14.3476 6.22384 14.3476 12.1732C14.3476 18.1226 10.6177 22.9623 6.02461 22.9623H1V22.7465H1.61652V2.58639C1.61652 1.72327 1.06165 1.41501 1 1.38419H6.02461ZM6.02461 22.7465C8.33654 22.7465 13.0837 19.109 13.0837 12.1732C13.0837 5.32989 8.33654 1.59997 6.02461 1.59997H2.9112V21.7601C2.9112 22.2533 3.09616 22.5615 3.28111 22.7465H6.02461Z" stroke="#F1ECE3" stroke-width="0.384201"/>
  <path d="M24.1218 22.9622V22.7465H24.7383L21.1317 11.7108C19.7445 12.9439 18.4806 14.6701 17.9874 16.4888V21.76C17.9874 22.6232 18.5423 22.9314 18.6039 22.9622H16.0762V22.7465H16.6927V2.58638C16.6927 1.72326 16.1379 1.415 16.0762 1.38417H18.4806C20.8542 1.38417 25.0157 1.90821 25.4164 4.92914C25.6322 6.00804 25.3548 7.21025 24.7999 8.1042C24.0293 9.33723 22.8271 10.2928 21.7173 11.2176L25.6939 21.76C26.0021 22.5923 26.6187 22.9314 26.6803 22.9622H24.1218ZM17.9874 15.749C19.3129 11.9266 22.4263 10.2312 23.721 7.48768C24.0909 6.71704 24.2142 5.94639 24.1218 5.14492C23.7827 2.43225 20.361 1.59995 18.0799 1.59995H17.9874V15.749Z" stroke="#F1ECE3" stroke-width="0.384201"/>
  <path d="M42.5335 22.619C43.0884 22.619 43.3658 22.0025 43.4891 21.5401V22.8348H34.3646V22.619H34.9812V2.4589C34.9812 1.59578 34.4263 1.28752 34.3646 1.25669H36.8924V1.47247H36.2759V21.6326C36.2759 22.1258 36.4608 22.434 36.6458 22.619H42.5335Z" stroke="#F1ECE3" stroke-width="0.384201"/>
  <path d="M57.5124 1V1.50769H46.6476V7.94031C48.1257 7.18289 50.8617 6.58601 53.0002 6.58601C54.604 6.58601 56.3966 6.87004 57.34 7.24875L54.95 8.7636C53.8807 8.10085 52.3397 7.62746 50.5157 7.62746C49.132 7.62746 47.9684 7.87994 46.6476 8.54268V22.4892H57.5124V23.0915H44.6417V1H57.5124Z" stroke="#F1ECE3" stroke-width="0.384201"/>
  <path d="M72.496 15.5907C72.496 19.0741 70.0916 22.8348 65.1595 22.8348H59.2409V22.619H59.8574V2.45894C59.8574 1.59581 59.3026 1.28755 59.2409 1.25673H61.6453C64.0189 1.25673 68.1804 1.78077 68.5811 4.8017C68.7969 5.8806 68.5195 7.08281 67.9646 7.97676C67.8105 8.19254 67.6564 8.40832 67.5022 8.6241C70.369 9.48722 72.496 12.2615 72.496 15.5907ZM61.1521 1.47251V15.6216C62.4468 11.8916 65.591 10.0729 66.8857 7.36024C67.2556 6.62042 67.3789 5.81895 67.2865 5.01748C66.9165 2.21233 63.4949 1.47251 61.1521 1.47251ZM62.6626 22.619C66.7932 22.619 68.4887 21.5093 69.4134 20.492C70.5232 19.1974 71.2013 17.4711 71.2013 15.5907C71.2013 12.6623 70.3074 9.91878 67.3481 8.77823C66.9474 9.27144 66.4233 9.76466 65.9301 10.1962C65.2211 10.8436 64.4505 11.3984 63.7723 12.0766C62.6009 13.2788 61.5837 14.6968 61.1521 16.3614V21.6326C61.1521 22.1258 61.3371 22.4341 61.522 22.619H62.6626Z" stroke="#F1ECE3" stroke-width="0.384201"/>
  <path d="M86.7122 1V1.50769H75.8474V7.94031C77.3255 7.18289 80.0615 6.58601 82.2 6.58601C83.8038 6.58601 85.5964 6.87004 86.5398 7.24875L84.1498 8.7636C83.0805 8.10085 81.5395 7.62746 79.7155 7.62746C78.3318 7.62746 77.1682 7.87994 75.8474 8.54268V22.4892H86.7122V23.0915H73.8415V1H86.7122Z" stroke="#F1ECE3" stroke-width="0.384201"/>
  <path d="M93.4653 1.44876C98.0584 1.44876 101.788 6.28841 101.788 12.2378C101.788 18.1872 98.0584 23.0268 93.4653 23.0268H88.4407V22.811H89.0572V2.65097C89.0572 1.78784 88.5024 1.47958 88.4407 1.44876H93.4653ZM93.4653 22.811C95.7773 22.811 100.524 19.1736 100.524 12.2378C100.524 5.39446 95.7773 1.66454 93.4653 1.66454H90.3519V21.8246C90.3519 22.3178 90.5369 22.6261 90.7218 22.811H93.4653Z" stroke="#F1ECE3" stroke-width="0.384201"/>
  <path d="M116.196 1V1.50769H105.331V7.94031C106.809 7.18289 109.545 6.58601 111.684 6.58601C113.288 6.58601 115.08 6.87004 116.024 7.24875L113.634 8.7636C112.565 8.10085 111.024 7.62746 109.2 7.62746C107.816 7.62746 106.652 7.87994 105.331 8.54268V22.4892H116.196V23.0915H103.326V1H116.196Z" stroke="#F1ECE3" stroke-width="0.384201"/>
  <path d="M128.244 1.25673C130.68 4.64757 128.83 8.31584 127.72 10.5353C126.179 13.6179 124.638 17.6869 124.514 21.1702L124.915 22.8348H123.59L118.658 2.45894C118.534 1.96572 118.195 1.47251 117.733 1.25673H120.26V1.47251H119.675L124.36 20.4612C124.607 17.1628 126.056 13.4021 127.535 10.4428C128.614 8.25419 129.385 4.55509 126.981 1.25673H128.244Z" stroke="#F1ECE3" stroke-width="0.384201"/>
  <path d="M139.075 21.6326C139.199 22.1258 139.538 22.619 140 22.8348H137.441V22.619H138.058L136.917 18.026C136.178 15.8682 134.359 13.8028 131.924 13.8028C131.153 13.8028 130.444 14.0186 129.858 14.4502C128.964 16.6388 128.625 19.9063 130.752 22.8348H129.488C127.053 19.444 128.903 15.7757 130.012 13.5562C131.554 10.4736 133.095 6.37382 133.218 2.92132L132.787 1.25673H134.143L139.075 21.6326ZM131.893 13.5871C133.958 13.5871 135.684 15.0359 136.609 16.7929L133.372 3.63032C133.095 6.92868 131.461 11.1518 129.982 14.1111C130.536 13.772 131.215 13.5871 131.893 13.5871Z" stroke="#F1ECE3" stroke-width="0.384201"/>
</svg>