<svg width="203" height="60" viewBox="0 0 203 60" fill="none" xmlns="http://www.w3.org/2000/svg">
<path d="M53.389 57.252V51.6594H56.9717V52.5086H54.4021V54.0269H56.7259V54.8762H54.4021V57.252H53.389ZM57.9145 57.252H56.8331L58.802 51.6594H60.0527L62.0243 57.252H60.9429L59.4492 52.8063H59.4055L57.9145 57.252ZM57.95 55.0592H60.8992V55.8729H57.95V55.0592ZM67.2851 53.5463H66.2638C66.2347 53.3788 66.181 53.2305 66.1027 53.1012C66.0244 52.9701 65.927 52.8591 65.8105 52.768C65.694 52.677 65.5611 52.6087 65.4118 52.5632C65.2644 52.5159 65.1051 52.4922 64.9339 52.4922C64.6299 52.4922 64.3605 52.5687 64.1256 52.7216C63.8908 52.8727 63.7069 53.0948 63.574 53.3879C63.4411 53.6792 63.3747 54.0351 63.3747 54.4557C63.3747 54.8835 63.4411 55.2439 63.574 55.537C63.7087 55.8283 63.8926 56.0486 64.1256 56.1979C64.3605 56.3453 64.629 56.4191 64.9312 56.4191C65.0987 56.4191 65.2553 56.3972 65.4009 56.3535C65.5484 56.308 65.6803 56.2416 65.7969 56.1542C65.9152 56.0668 66.0144 55.9594 66.0945 55.832C66.1764 55.7045 66.2329 55.5589 66.2638 55.395L67.2851 55.4005C67.2469 55.6663 67.1641 55.9157 67.0366 56.1487C66.911 56.3818 66.7462 56.5875 66.5423 56.7659C66.3385 56.9425 66.1 57.0808 65.8269 57.181C65.5538 57.2793 65.2507 57.3284 64.9175 57.3284C64.426 57.3284 63.9873 57.2146 63.6013 56.9871C63.2154 56.7595 62.9113 56.4309 62.6892 56.0013C62.4671 55.5716 62.3561 55.0564 62.3561 54.4557C62.3561 53.8531 62.4681 53.3379 62.692 52.91C62.9159 52.4804 63.2208 52.1518 63.6068 51.9242C63.9927 51.6967 64.4296 51.5829 64.9175 51.5829C65.2289 51.5829 65.5183 51.6266 65.7859 51.714C66.0535 51.8014 66.292 51.9297 66.5014 52.099C66.7107 52.2665 66.8828 52.4722 67.0175 52.7162C67.154 52.9583 67.2432 53.235 67.2851 53.5463ZM69.226 51.6594V57.252H68.2129V51.6594H69.226ZM71.0413 57.252H69.9599L71.9288 51.6594H73.1795L75.1511 57.252H74.0697L72.576 52.8063H72.5323L71.0413 57.252ZM71.0768 55.0592H74.026V55.8729H71.0768V55.0592ZM75.8877 57.252V51.6594H76.9008V56.4027H79.364V57.252H75.8877ZM82.1507 57.252V51.6594H84.2479C84.6776 51.6594 85.038 51.7395 85.3293 51.8997C85.6224 52.0599 85.8436 52.2801 85.9929 52.5605C86.144 52.839 86.2195 53.1558 86.2195 53.5108C86.2195 53.8694 86.144 54.188 85.9929 54.4666C85.8418 54.7451 85.6188 54.9645 85.3238 55.1247C85.0289 55.2831 84.6657 55.3623 84.2343 55.3623H82.8443V54.5294H84.0977C84.349 54.5294 84.5547 54.4857 84.7149 54.3983C84.8751 54.3109 84.9934 54.1908 85.0699 54.0378C85.1482 53.8849 85.1873 53.7092 85.1873 53.5108C85.1873 53.3124 85.1482 53.1376 85.0699 52.9865C84.9934 52.8354 84.8742 52.718 84.7122 52.6342C84.552 52.5487 84.3453 52.5059 84.0923 52.5059H83.1638V57.252H82.1507ZM87.0995 57.252V51.6594H88.1126V56.4027H90.5758V57.252H87.0995ZM92.3836 57.252H91.3022L93.271 51.6594H94.5217L96.4933 57.252H95.412L93.9182 52.8063H93.8745L92.3836 57.252ZM92.4191 55.0592H95.3683V55.8729H92.4191V55.0592ZM100.179 53.1968C100.154 52.9583 100.046 52.7726 99.857 52.6397C99.6695 52.5068 99.4255 52.4404 99.1251 52.4404C98.9139 52.4404 98.7328 52.4722 98.5817 52.5359C98.4306 52.5996 98.315 52.6861 98.2349 52.7953C98.1548 52.9046 98.1138 53.0293 98.112 53.1695C98.112 53.286 98.1384 53.387 98.1912 53.4726C98.2458 53.5581 98.3195 53.631 98.4124 53.691C98.5052 53.7493 98.6081 53.7984 98.721 53.8385C98.8338 53.8786 98.9476 53.9122 99.0623 53.9395L99.5866 54.0706C99.7978 54.1198 100.001 54.1862 100.196 54.27C100.392 54.3537 100.568 54.4593 100.723 54.5867C100.879 54.7142 101.003 54.868 101.094 55.0482C101.185 55.2285 101.231 55.4396 101.231 55.6818C101.231 56.0095 101.147 56.298 100.979 56.5474C100.812 56.795 100.57 56.9889 100.253 57.1291C99.938 57.2674 99.5566 57.3366 99.1087 57.3366C98.6736 57.3366 98.2959 57.2692 97.9755 57.1345C97.6569 56.9998 97.4075 56.8032 97.2272 56.5447C97.0488 56.2862 96.9523 55.9712 96.9378 55.5998H97.9345C97.9491 55.7946 98.0091 55.9567 98.1147 56.0859C98.2203 56.2152 98.3578 56.3117 98.5271 56.3754C98.6982 56.4391 98.8894 56.471 99.1005 56.471C99.3208 56.471 99.5138 56.4382 99.6795 56.3726C99.847 56.3053 99.978 56.2124 100.073 56.0941C100.167 55.974 100.216 55.8338 100.217 55.6736C100.216 55.5279 100.173 55.4078 100.089 55.3131C100.005 55.2166 99.8879 55.1365 99.7368 55.0728C99.5875 55.0073 99.4128 54.949 99.2125 54.898L98.5762 54.7342C98.1156 54.6159 97.7515 54.4365 97.4839 54.1962C97.2181 53.9541 97.0852 53.6328 97.0852 53.2323C97.0852 52.9028 97.1744 52.6142 97.3529 52.3666C97.5331 52.119 97.7779 51.927 98.0874 51.7904C98.3969 51.6521 98.7474 51.5829 99.1388 51.5829C99.5356 51.5829 99.8834 51.6521 100.182 51.7904C100.482 51.927 100.718 52.1172 100.889 52.3612C101.06 52.6033 101.149 52.8818 101.154 53.1968H100.179ZM101.888 52.5086V51.6594H106.35V52.5086H104.621V57.252H103.617V52.5086H101.888ZM108.223 51.6594V57.252H107.21V51.6594H108.223ZM114.107 53.5463H113.086C113.057 53.3788 113.003 53.2305 112.925 53.1012C112.847 52.9701 112.749 52.8591 112.633 52.768C112.516 52.677 112.383 52.6087 112.234 52.5632C112.087 52.5159 111.927 52.4922 111.756 52.4922C111.452 52.4922 111.183 52.5687 110.948 52.7216C110.713 52.8727 110.529 53.0948 110.396 53.3879C110.263 53.6792 110.197 54.0351 110.197 54.4557C110.197 54.8835 110.263 55.2439 110.396 55.537C110.531 55.8283 110.715 56.0486 110.948 56.1979C111.183 56.3453 111.451 56.4191 111.754 56.4191C111.921 56.4191 112.078 56.3972 112.223 56.3535C112.371 56.308 112.503 56.2416 112.619 56.1542C112.738 56.0668 112.837 55.9594 112.917 55.832C112.999 55.7045 113.055 55.5589 113.086 55.395L114.107 55.4005C114.069 55.6663 113.986 55.9157 113.859 56.1487C113.733 56.3818 113.569 56.5875 113.365 56.7659C113.161 56.9425 112.922 57.0808 112.649 57.181C112.376 57.2793 112.073 57.3284 111.74 57.3284C111.248 57.3284 110.81 57.2146 110.424 56.9871C110.038 56.7595 109.734 56.4309 109.512 56.0013C109.289 55.5716 109.178 55.0564 109.178 54.4557C109.178 53.8531 109.29 53.3379 109.514 52.91C109.738 52.4804 110.043 52.1518 110.429 51.9242C110.815 51.6967 111.252 51.5829 111.74 51.5829C112.051 51.5829 112.341 51.6266 112.608 51.714C112.876 51.8014 113.114 51.9297 113.324 52.099C113.533 52.2665 113.705 52.4722 113.84 52.7162C113.976 52.9583 114.066 53.235 114.107 53.5463ZM119.982 53.1968C119.957 52.9583 119.849 52.7726 119.66 52.6397C119.472 52.5068 119.228 52.4404 118.928 52.4404C118.717 52.4404 118.536 52.4722 118.385 52.5359C118.233 52.5996 118.118 52.6861 118.038 52.7953C117.958 52.9046 117.917 53.0293 117.915 53.1695C117.915 53.286 117.941 53.387 117.994 53.4726C118.049 53.5581 118.122 53.631 118.215 53.691C118.308 53.7493 118.411 53.7984 118.524 53.8385C118.637 53.8786 118.75 53.9122 118.865 53.9395L119.389 54.0706C119.601 54.1198 119.804 54.1862 119.998 54.27C120.195 54.3537 120.371 54.4593 120.525 54.5867C120.682 54.7142 120.806 54.868 120.897 55.0482C120.988 55.2285 121.033 55.4396 121.033 55.6818C121.033 56.0095 120.95 56.298 120.782 56.5474C120.615 56.795 120.372 56.9889 120.056 57.1291C119.741 57.2674 119.359 57.3366 118.912 57.3366C118.476 57.3366 118.099 57.2692 117.778 57.1345C117.46 56.9998 117.21 56.8032 117.03 56.5447C116.852 56.2862 116.755 55.9712 116.741 55.5998H117.737C117.752 55.7946 117.812 55.9567 117.918 56.0859C118.023 56.2152 118.161 56.3117 118.33 56.3754C118.501 56.4391 118.692 56.471 118.903 56.471C119.124 56.471 119.317 56.4382 119.482 56.3726C119.65 56.3053 119.781 56.2124 119.875 56.0941C119.97 55.974 120.018 55.8338 120.02 55.6736C120.018 55.5279 119.976 55.4078 119.892 55.3131C119.808 55.2166 119.691 55.1365 119.54 55.0728C119.39 55.0073 119.216 54.949 119.015 54.898L118.379 54.7342C117.918 54.6159 117.554 54.4365 117.287 54.1962C117.021 53.9541 116.888 53.6328 116.888 53.2323C116.888 52.9028 116.977 52.6142 117.156 52.3666C117.336 52.119 117.581 51.927 117.89 51.7904C118.2 51.6521 118.55 51.5829 118.942 51.5829C119.338 51.5829 119.686 51.6521 119.985 51.7904C120.285 51.927 120.521 52.1172 120.692 52.3612C120.863 52.6033 120.951 52.8818 120.957 53.1968H119.982ZM125.462 51.6594H126.475V55.3131C126.475 55.7136 126.38 56.0659 126.191 56.3699C126.004 56.6739 125.74 56.9115 125.399 57.0826C125.059 57.252 124.661 57.3366 124.206 57.3366C123.749 57.3366 123.35 57.252 123.01 57.0826C122.669 56.9115 122.405 56.6739 122.218 56.3699C122.03 56.0659 121.937 55.7136 121.937 55.3131V51.6594H122.95V55.2285C122.95 55.4615 123.001 55.669 123.103 55.8511C123.206 56.0331 123.352 56.176 123.54 56.2798C123.727 56.3818 123.949 56.4327 124.206 56.4327C124.463 56.4327 124.685 56.3818 124.872 56.2798C125.061 56.176 125.207 56.0331 125.309 55.8511C125.411 55.669 125.462 55.4615 125.462 55.2285V51.6594ZM127.576 57.252V51.6594H129.673C130.103 51.6594 130.464 51.734 130.755 51.8833C131.048 52.0326 131.269 52.2419 131.418 52.5113C131.57 52.779 131.645 53.0912 131.645 53.448C131.645 53.8066 131.569 54.1179 131.416 54.3819C131.265 54.6441 131.042 54.8471 130.747 54.9909C130.452 55.1329 130.089 55.2039 129.66 55.2039H128.166V54.3628H129.523C129.775 54.3628 129.98 54.3282 130.14 54.259C130.301 54.188 130.419 54.0852 130.495 53.9505C130.574 53.8139 130.613 53.6464 130.613 53.448C130.613 53.2496 130.574 53.0803 130.495 52.9401C130.417 52.7981 130.298 52.6907 130.138 52.6178C129.977 52.5432 129.771 52.5059 129.518 52.5059H128.589V57.252H127.576ZM130.465 54.7178L131.85 57.252H130.719L129.359 54.7178H130.465ZM136.324 53.4453C136.279 53.2978 136.216 53.1658 136.136 53.0493C136.058 52.931 135.963 52.8299 135.852 52.7462C135.743 52.6625 135.617 52.5996 135.475 52.5578C135.333 52.5141 135.178 52.4922 135.011 52.4922C134.71 52.4922 134.443 52.5678 134.208 52.7189C133.973 52.87 133.788 53.0921 133.654 53.3852C133.521 53.6765 133.454 54.0315 133.454 54.4502C133.454 54.8725 133.521 55.2303 133.654 55.5234C133.786 55.8165 133.971 56.0395 134.208 56.1924C134.445 56.3435 134.719 56.4191 135.033 56.4191C135.317 56.4191 135.562 56.3645 135.77 56.2552C135.979 56.146 136.14 55.9913 136.253 55.791C136.366 55.5889 136.423 55.3523 136.423 55.081L136.652 55.1165H135.134V54.3246H137.403V54.9963C137.403 55.4751 137.301 55.8893 137.097 56.2388C136.893 56.5884 136.613 56.8578 136.256 57.0471C135.899 57.2347 135.49 57.3284 135.027 57.3284C134.512 57.3284 134.06 57.2128 133.67 56.9816C133.282 56.7486 132.979 56.4182 132.761 55.9903C132.544 55.5607 132.436 55.051 132.436 54.4611C132.436 54.0096 132.499 53.6064 132.627 53.2514C132.756 52.8964 132.936 52.5951 133.167 52.3475C133.399 52.0981 133.67 51.9088 133.981 51.7795C134.293 51.6484 134.631 51.5829 134.997 51.5829C135.307 51.5829 135.595 51.6284 135.863 51.7194C136.13 51.8086 136.368 51.9361 136.575 52.1017C136.785 52.2674 136.957 52.464 137.092 52.6916C137.226 52.9191 137.315 53.1704 137.356 53.4453H136.324ZM138.383 57.252V51.6594H142.02V52.5086H139.396V54.0269H141.832V54.8762H139.396V56.4027H142.042V57.252H138.383ZM148.051 54.4557C148.051 55.0582 147.938 55.5744 147.712 56.004C147.488 56.4318 147.182 56.7595 146.795 56.9871C146.409 57.2146 145.971 57.3284 145.481 57.3284C144.991 57.3284 144.553 57.2146 144.165 56.9871C143.779 56.7577 143.473 56.4291 143.247 56.0013C143.023 55.5716 142.912 55.0564 142.912 54.4557C142.912 53.8531 143.023 53.3379 143.247 52.91C143.473 52.4804 143.779 52.1518 144.165 51.9242C144.553 51.6967 144.991 51.5829 145.481 51.5829C145.971 51.5829 146.409 51.6967 146.795 51.9242C147.182 52.1518 147.488 52.4804 147.712 52.91C147.938 53.3379 148.051 53.8531 148.051 54.4557ZM147.032 54.4557C147.032 54.0315 146.966 53.6737 146.833 53.3825C146.702 53.0894 146.52 52.8682 146.287 52.7189C146.054 52.5678 145.785 52.4922 145.481 52.4922C145.177 52.4922 144.909 52.5678 144.676 52.7189C144.443 52.8682 144.26 53.0894 144.127 53.3825C143.996 53.6737 143.93 54.0315 143.93 54.4557C143.93 54.8798 143.996 55.2385 144.127 55.5316C144.26 55.8229 144.443 56.044 144.676 56.1951C144.909 56.3444 145.177 56.4191 145.481 56.4191C145.785 56.4191 146.054 56.3444 146.287 56.1951C146.52 56.044 146.702 55.8229 146.833 55.5316C146.966 55.2385 147.032 54.8798 147.032 54.4557ZM153.605 51.6594V57.252H152.703L150.068 53.4425H150.022V57.252H149.009V51.6594H149.915L152.548 55.4715H152.597V51.6594H153.605Z" fill="#252320"/>
<path d="M8.2658 0.555664C14.9075 0.555664 20.3012 7.55401 20.3012 16.1571C20.3012 24.7601 14.9075 31.7585 8.2658 31.7585H1V31.4465H1.89151V2.29411C1.89151 1.046 1.08915 0.600239 1 0.555664H8.2658ZM8.2658 31.4465C11.609 31.4465 18.4736 26.1866 18.4736 16.1571C18.4736 6.26132 11.609 0.867694 8.2658 0.867694H3.76368V30.02C3.76368 30.7333 4.03113 31.179 4.29859 31.4465H8.2658Z" fill="#252320" stroke="#252320" stroke-width="0.512334"/>
<path d="M34.435 31.7585V31.4465H35.3265L30.1112 15.4884C28.1053 17.2715 26.2777 19.7677 25.5645 22.3976V30.02C25.5645 31.2682 26.3668 31.7139 26.456 31.7585H22.8008V31.4465H23.6923V2.29411C23.6923 1.046 22.8899 0.600239 22.8008 0.555664H26.2777C29.71 0.555664 35.7277 1.31345 36.3071 5.68184C36.6192 7.24199 36.218 8.98043 35.4156 10.2731C34.3012 12.0561 32.5628 13.438 30.9581 14.7752L36.7083 30.02C37.1541 31.2236 38.0456 31.7139 38.1347 31.7585H34.435ZM25.5645 21.3278C27.4812 15.8005 31.9833 13.3488 33.8555 9.38161C34.3904 8.26722 34.5687 7.15283 34.435 5.99387C33.9446 2.07123 28.9968 0.867694 25.6982 0.867694H25.5645V21.3278Z" fill="#252320" stroke="#252320" stroke-width="0.512334"/>
<path d="M61.0596 31.2619C61.8619 31.2619 62.2631 30.3704 62.4414 29.7018V31.5739H49.2471V31.2619H50.1386V2.10954C50.1386 0.861426 49.3362 0.415669 49.2471 0.371094H52.9023V0.683123H52.0108V29.8355C52.0108 30.5487 52.2782 30.9944 52.5457 31.2619H61.0596Z" fill="#252320" stroke="#252320" stroke-width="0.512334"/>
<path d="M82.719 0V0.734147H67.008V10.036C69.1454 8.94072 73.1018 8.07761 76.1941 8.07761C78.5134 8.07761 81.1055 8.48833 82.4697 9.03596L79.0136 11.2265C77.4674 10.2681 75.2391 9.5836 72.6015 9.5836C70.6006 9.5836 68.918 9.94869 67.008 10.907V31.0743H82.719V31.9453H64.1074V0H82.719Z" fill="#252320"/>
<path d="M104.386 21.0987C104.386 26.1357 100.909 31.5739 93.7772 31.5739H85.2188V31.2619H86.1103V2.10954C86.1103 0.861426 85.3079 0.415669 85.2188 0.371094H88.6956C92.128 0.371094 98.1456 1.12888 98.7251 5.49727C99.0371 7.05742 98.636 8.79586 97.8336 10.0885C97.6107 10.4006 97.3879 10.7126 97.165 11.0246C101.31 12.2727 104.386 16.2845 104.386 21.0987ZM87.9824 0.683123V21.1433C89.8546 15.7496 94.4013 13.1197 96.2735 9.19704C96.8084 8.12723 96.9867 6.96826 96.8529 5.8093C96.318 1.75293 91.3702 0.683123 87.9824 0.683123ZM90.1666 31.2619C96.1397 31.2619 98.5914 29.6572 99.9287 28.1862C101.533 26.314 102.514 23.8178 102.514 21.0987C102.514 16.864 101.221 12.8968 96.9421 11.2475C96.3626 11.9607 95.6048 12.6739 94.8916 13.298C93.8664 14.2341 92.752 15.0364 91.7713 16.0171C90.0775 17.7555 88.6065 19.806 87.9824 22.2131V29.8355C87.9824 30.5487 88.2499 30.9944 88.5173 31.2619H90.1666Z" fill="#252320" stroke="#252320" stroke-width="0.512334"/>
<path d="M124.944 0V0.734147H109.233V10.036C111.37 8.94072 115.326 8.07761 118.419 8.07761C120.738 8.07761 123.33 8.48833 124.694 9.03596L121.238 11.2265C119.692 10.2681 117.464 9.5836 114.826 9.5836C112.825 9.5836 111.143 9.94869 109.233 10.907V31.0743H124.944V31.9453H106.332V0H124.944Z" fill="#252320"/>
<path d="M134.709 0.649414C141.351 0.649414 146.745 7.64776 146.745 16.2508C146.745 24.8539 141.351 31.8522 134.709 31.8522H127.443V31.5402H128.335V2.38786C128.335 1.13975 127.533 0.693989 127.443 0.649414H134.709ZM134.709 31.5402C138.052 31.5402 144.917 26.2803 144.917 16.2508C144.917 6.35507 138.052 0.961444 134.709 0.961444H130.207V30.1138C130.207 30.827 130.474 31.2728 130.742 31.5402H134.709Z" fill="#252320" stroke="#252320" stroke-width="0.512334"/>
<path d="M167.578 0V0.734147H151.867V10.036C154.005 8.94072 157.961 8.07761 161.053 8.07761C163.373 8.07761 165.965 8.48833 167.329 9.03596L163.873 11.2265C162.327 10.2681 160.098 9.5836 157.461 9.5836C155.46 9.5836 153.777 9.94869 151.867 10.907V31.0743H167.578V31.9453H148.967V0H167.578Z" fill="#252320"/>
<path d="M185.001 0.371094C188.522 5.27439 185.848 10.5789 184.243 13.7883C182.014 18.2459 179.786 24.1298 179.607 29.1668L180.187 31.5739H178.27L171.138 2.10954C170.96 1.39633 170.469 0.683123 169.801 0.371094H173.456V0.683123H172.609L179.384 28.1416C179.741 23.372 181.836 17.9338 183.976 13.6546C185.536 10.4897 186.65 5.14067 183.173 0.371094H185.001Z" fill="#252320" stroke="#252320" stroke-width="0.512334"/>
<path d="M200.663 29.8355C200.841 30.5487 201.331 31.2619 202 31.5739H198.3V31.2619H199.192L197.542 24.6201C196.472 21.4999 193.843 18.5133 190.321 18.5133C189.207 18.5133 188.181 18.8253 187.334 19.4494C186.042 22.6143 185.551 27.3393 188.627 31.5739H186.8C183.278 26.6706 185.953 21.3661 187.557 18.1567C189.786 13.6992 192.015 7.77062 192.193 2.77817L191.569 0.371094H193.53L200.663 29.8355ZM190.276 18.2013C193.263 18.2013 195.759 20.2963 197.097 22.8371L192.416 3.80341C192.015 8.57298 189.652 14.6798 187.513 18.9591C188.315 18.4687 189.296 18.2013 190.276 18.2013Z" fill="#252320" stroke="#252320" stroke-width="0.512334"/>
</svg>
