<svg width="45" height="45" viewBox="0 0 45 45" fill="none" xmlns="http://www.w3.org/2000/svg">
<path d="M34.4074 16.085C34.586 15.46 34.4074 15 33.5483 15H30.7054C29.9814 15 29.6484 15.395 29.4698 15.835C29.4698 15.835 28.0218 19.49 25.9753 21.86C25.3141 22.545 25.01 22.765 24.648 22.765C24.4694 22.765 24.1943 22.545 24.1943 21.92V16.085C24.1943 15.335 23.9915 15 23.393 15H18.9236C18.4699 15 18.1996 15.35 18.1996 15.675C18.1996 16.385 19.2228 16.55 19.329 18.55V22.89C19.329 23.84 19.1649 24.015 18.8029 24.015C17.8376 24.015 15.4918 20.345 14.1018 16.145C13.8218 15.33 13.5467 15 12.8179 15H9.97498C9.16411 15 9 15.395 9 15.835C9 16.615 9.96533 20.49 13.4936 25.61C15.8442 29.105 19.1553 31 22.1671 31C23.9771 31 24.1991 30.58 24.1991 29.855C24.1991 26.515 24.035 26.2 24.9424 26.2C25.3623 26.2 26.0863 26.42 27.7756 28.105C29.7063 30.105 30.0249 31 31.106 31H33.9489C34.7598 31 35.1701 30.58 34.9336 29.75C34.393 28.005 30.7392 24.415 30.5751 24.175C30.1552 23.615 30.2758 23.365 30.5751 22.865C30.5799 22.86 34.0503 17.8 34.4074 16.085Z" fill="#252320"/>
<rect x="0.5" y="0.5" width="44" height="44" rx="11.5" stroke="#252320"/>
</svg>
