<svg xmlns="http://www.w3.org/2000/svg" width="23" height="14" viewBox="0 0 23 14" fill="none">
  <path d="M22.2315 0.949375C22.3878 0.4025 22.2315 0 21.4798 0H18.9922C18.3587 0 18.0673 0.345625 17.9111 0.730625C17.9111 0.730625 16.6441 3.92875 14.8534 6.0025C14.2748 6.60187 14.0087 6.79437 13.692 6.79437C13.5357 6.79437 13.295 6.60187 13.295 6.055V0.949375C13.295 0.293125 13.1176 0 12.5939 0H8.68313C8.28614 0 8.04963 0.30625 8.04963 0.590625C8.04963 1.21187 8.94497 1.35625 9.03789 3.10625V6.90375C9.03789 7.735 8.89429 7.88812 8.57755 7.88812C7.73288 7.88812 5.68036 4.67688 4.46404 1.00188C4.21909 0.28875 3.97836 0 3.34064 0H0.853109C0.143593 0 0 0.345625 0 0.730625C0 1.41312 0.844662 4.80375 3.9319 9.28375C5.98866 12.3419 8.88585 14 11.5212 14C13.1049 14 13.2992 13.6325 13.2992 12.9981C13.2992 10.0756 13.1556 9.8 13.9496 9.8C14.317 9.8 14.9505 9.9925 16.4287 11.4669C18.118 13.2169 18.3967 14 19.3428 14H21.8303C22.5398 14 22.8988 13.6325 22.6919 12.9062C22.2188 11.3794 19.0218 8.23812 18.8782 8.02812C18.5108 7.53813 18.6164 7.31938 18.8782 6.88188C18.8824 6.8775 21.919 2.45 22.2315 0.949375Z" fill="currentColor"/>
</svg>